<?xml version="1.0" encoding="utf-8"?>
<!-- Generator: Adobe Illustrator 22.1.0, SVG Export Plug-In . SVG Version: 6.00 Build 0)  -->
<svg version="1.1" id="Capa_1" xmlns="http://www.w3.org/2000/svg" xmlns:xlink="http://www.w3.org/1999/xlink" x="0px" y="0px"
	 viewBox="0 0 480 480" style="enable-background:new 0 0 480 480;" xml:space="preserve">
<style type="text/css">
	.st0{fill:#FFFFFF;}
</style>
<g>
	<g>
		<path class="st0" d="M360,408h-80v-16h64c4.4,0,8-3.6,8-8c0,0,0,0,0,0V128c0-4.4-3.6-8-8-8c0,0,0,0,0,0H136c-4.4,0-8,3.6-8,8
			c0,0,0,0,0,0v256c0,4.4,3.6,8,8,8c0,0,0,0,0,0h64v16h-80c-35.3,0-64,28.7-64,64c0,4.4,3.6,8,8,8c0,0,0,0,0,0h352c4.4,0,8-3.6,8-8
			c0,0,0,0,0,0C424,436.7,395.3,408,360,408z M144,376V136h192v240H144z M72.7,464c3.9-23.1,23.9-40,47.3-40h88c4.4,0,8-3.6,8-8
			c0,0,0,0,0,0v-24h48v24c0,4.4,3.6,8,8,8c0,0,0,0,0,0h88c23.4,0,43.4,16.9,47.3,40H72.7z"/>
	</g>
</g>
<g>
	<g>
		<rect x="160" y="152" class="st0" width="120" height="16"/>
	</g>
</g>
<g>
	<g>
		<rect x="296" y="152" class="st0" width="24" height="16"/>
	</g>
</g>
<g>
	<g>
		<rect x="160" y="184" class="st0" width="80" height="16"/>
	</g>
</g>
<g>
	<g>
		<rect x="256" y="184" class="st0" width="64" height="16"/>
	</g>
</g>
<g>
	<g>
		<rect x="160" y="216" class="st0" width="24" height="16"/>
	</g>
</g>
<g>
	<g>
		<rect x="200" y="216" class="st0" width="120" height="16"/>
	</g>
</g>
<g>
	<g>
		<rect x="200" y="312" class="st0" width="120" height="16"/>
	</g>
</g>
<g>
	<g>
		<rect x="160" y="312" class="st0" width="24" height="16"/>
	</g>
</g>
<g>
	<g>
		<rect x="240" y="280" class="st0" width="80" height="16"/>
	</g>
</g>
<g>
	<g>
		<rect x="160" y="280" class="st0" width="64" height="16"/>
	</g>
</g>
<g>
	<g>
		<rect x="296" y="248" class="st0" width="24" height="16"/>
	</g>
</g>
<g>
	<g>
		<rect x="160" y="248" class="st0" width="120" height="16"/>
	</g>
</g>
<g>
	<g>
		<rect x="160" y="344" class="st0" width="72" height="16"/>
	</g>
</g>
<g>
	<g>
		<rect x="248" y="344" class="st0" width="72" height="16"/>
	</g>
</g>
<g>
	<g>
		<path class="st0" d="M136,0C136,0,136,0,136,0H8C3.6,0,0,3.6,0,8c0,0,0,0,0,0v72c0,4.4,3.6,8,8,8c0,0,0,0,0,0h68l21.6,28.8
			c1.5,2,3.9,3.2,6.4,3.2c0.5,0,1.1-0.1,1.6-0.2c3-0.6,5.4-2.9,6.2-5.9l6.5-25.9H136c4.4,0,8-3.6,8-8c0,0,0,0,0,0V8
			C144,3.6,140.4,0,136,0z M128,72h-16c-3.7,0-6.9,2.5-7.8,6.1l-3.9,15.7L86.4,75.2c-1.5-2-3.9-3.2-6.4-3.2H16V16h112V72z"/>
	</g>
</g>
<g>
	<g>
		<path class="st0" d="M472,0C472,0,472,0,472,0H344c-4.4,0-8,3.6-8,8c0,0,0,0,0,0v72c0,4.4,3.6,8,8,8c0,0,0,0,0,0h17.8l6.5,25.9
			c0.7,3,3.1,5.3,6.2,5.9c0.5,0.1,1.1,0.2,1.6,0.2c2.5,0,4.9-1.2,6.4-3.2L404,88h68c4.4,0,8-3.6,8-8c0,0,0,0,0,0V8
			C480,3.6,476.4,0,472,0z M464,72h-64c-2.5,0-4.9,1.2-6.4,3.2l-13.9,18.6l-3.9-15.7c-0.9-3.6-4.1-6.1-7.8-6.1h-16V16h112V72z"/>
	</g>
</g>
<g>
	<g>
		<rect x="368" y="32" class="st0" width="48" height="16"/>
	</g>
</g>
<g>
	<g>
		<rect x="432" y="32" class="st0" width="16" height="16"/>
	</g>
</g>
<g>
	<g>
		<rect x="32" y="32" class="st0" width="24" height="16"/>
	</g>
</g>
<g>
	<g>
		<rect x="72" y="32" class="st0" width="40" height="16"/>
	</g>
</g>
</svg>
